<?xml version="1.0" standalone="no"?>
<!DOCTYPE svg PUBLIC "-//W3C//DTD SVG 20010904//EN"
 "http://www.w3.org/TR/2001/REC-SVG-20010904/DTD/svg10.dtd">
<svg version="1.0" xmlns="http://www.w3.org/2000/svg"
 width="222.000000pt" height="222.000000pt" viewBox="0 0 222.000000 222.000000"
 preserveAspectRatio="xMidYMid meet">
<metadata>
Created by potrace 1.14, written by Peter Selinger 2001-2017
</metadata>
<g transform="translate(0.000000,222.000000) scale(0.100000,-0.100000)"
fill="#000000" stroke="none">
<path d="M1272 2051 c-204 -69 -283 -324 -157 -506 167 -241 542 -127 560 171
14 229 -197 404 -403 335z"/>
<path d="M395 1542 c-74 -18 -133 -63 -143 -106 -3 -17 -6 -34 -5 -37 1 -3
-14 -6 -35 -7 -51 -2 -76 -30 -68 -75 10 -53 38 -66 143 -65 48 0 93 0 99 -1
8 -1 10 -16 7 -44 -4 -34 1 -55 25 -103 58 -115 148 -212 247 -266 55 -30 68
-33 145 -33 95 1 150 20 227 82 23 18 43 33 46 33 2 0 4 -134 4 -298 0 -321 4
-345 56 -374 29 -15 393 -19 439 -4 19 7 40 24 51 44 17 30 19 55 20 277 0
207 2 242 13 226 17 -23 67 -132 164 -354 46 -107 84 -148 139 -149 69 -2 129
51 135 119 4 38 -10 77 -93 268 -119 273 -237 493 -313 586 -26 32 -91 69
-122 69 -31 0 -31 -1 -65 -111 -38 -122 -62 -173 -94 -201 -47 -40 -54 -40
-92 -7 -51 45 -58 61 -116 248 l-22 73 -41 -6 c-43 -7 -103 -49 -146 -101
-102 -124 -178 -172 -231 -145 -31 16 -92 84 -119 133 l-21 37 98 0 c113 0
143 15 143 70 0 46 -31 70 -90 70 -45 0 -50 2 -50 22 0 38 -41 85 -100 112
-68 32 -154 39 -235 18z"/>
<path d="M1251 1371 c-15 -10 -13 -92 3 -103 5 -3 26 2 45 11 41 21 103 19
147 -4 36 -18 47 -8 46 46 -1 56 -12 65 -53 43 -41 -21 -105 -22 -145 -1 -17
9 -36 12 -43 8z"/>
<path d="M1344 1225 c-8 -21 2 -45 19 -45 8 0 20 7 27 15 10 12 10 18 0 30 -7
8 -19 15 -27 15 -7 0 -16 -7 -19 -15z"/>
<path d="M1341 1112 c-8 -15 -7 -23 4 -32 21 -18 47 -4 43 22 -4 29 -34 35
-47 10z"/>
</g>
</svg>
